CalSansText-Bold.ufo
<glyph name="four" format="2">
  <advance width="613.0"/>
  <unicode hex="0034"/>
  <outline>
    <contour>
      <point x="333.0" y="0.0" type="line"/>
      <point x="468.0" y="0.0" type="line"/>
      <point x="468.0" y="700.0" type="line"/>
      <point x="369.0" y="700.0" type="line"/>
      <point x="21.0" y="238.0" type="line"/>
      <point x="21.0" y="193.0" type="line"/>
      <point x="548.0" y="193.0" type="line"/>
      <point x="548.0" y="305.0" type="line"/>
      <point x="192.0" y="305.0" type="line"/>
      <point x="192.0" y="306.0" type="line"/>
      <point x="199.0" y="309.0"/>
      <point x="205.0" y="314.0"/>
      <point x="211.0" y="322.0" type="curve" smooth="yes"/>
      <point x="301.0" y="441.0" type="line" smooth="yes"/>
      <point x="320.0" y="466.0"/>
      <point x="333.0" y="498.0"/>
      <point x="335.0" y="510.0" type="curve"/>
      <point x="337.0" y="510.0" type="line"/>
      <point x="335.0" y="499.0"/>
      <point x="333.0" y="438.0"/>
      <point x="333.0" y="385.0" type="curve" smooth="yes"/>
    </contour>
  </outline>
</glyph>
<glyph name="nine" format="2">
  <advance width="613.0"/>
  <unicode hex="0039"/>
  <outline>
    <contour>
      <point x="132.0" y="0.0" type="line"/>
      <point x="295.0" y="0.0" type="line"/>
      <point x="495.0" y="302.0" type="line" smooth="yes"/>
      <point x="544.0" y="376.0"/>
      <point x="551.0" y="422.0"/>
      <point x="551.0" y="473.0" type="curve" smooth="yes"/>
      <point x="551.0" y="612.0"/>
      <point x="446.0" y="713.0"/>
      <point x="295.0" y="713.0" type="curve" smooth="yes"/>
      <point x="144.0" y="713.0"/>
      <point x="37.0" y="612.0"/>
      <point x="37.0" y="473.0" type="curve" smooth="yes"/>
      <point x="37.0" y="320.0"/>
      <point x="149.0" y="222.0"/>
      <point x="294.0" y="249.0" type="curve"/>
      <point x="296.0" y="245.0" type="line"/>
    </contour>
    <contour>
      <point x="294.0" y="355.0" type="curve" smooth="yes"/>
      <point x="223.0" y="355.0"/>
      <point x="182.0" y="413.0"/>
      <point x="182.0" y="473.0" type="curve" smooth="yes"/>
      <point x="182.0" y="533.0"/>
      <point x="223.0" y="583.0"/>
      <point x="295.0" y="583.0" type="curve" smooth="yes"/>
      <point x="365.0" y="583.0"/>
      <point x="406.0" y="533.0"/>
      <point x="406.0" y="473.0" type="curve" smooth="yes"/>
      <point x="406.0" y="413.0"/>
      <point x="365.0" y="355.0"/>
    </contour>
  </outline>
</glyph>
<glyph name="question" format="2">
  <advance width="530.0"/>
  <unicode hex="003F"/>
  <outline>
    <contour>
      <point x="203.0" y="213.0" type="line"/>
      <point x="303.0" y="213.0" type="line"/>
      <point x="309.0" y="301.0" type="line"/>
      <point x="312.0" y="304.0" type="line"/>
      <point x="414.0" y="320.0"/>
      <point x="490.0" y="407.0"/>
      <point x="490.0" y="506.0" type="curve" smooth="yes"/>
      <point x="490.0" y="634.0"/>
      <point x="393.0" y="713.0"/>
      <point x="264.0" y="713.0" type="curve" smooth="yes"/>
      <point x="133.0" y="713.0"/>
      <point x="34.0" y="632.0"/>
      <point x="34.0" y="500.0" type="curve"/>
      <point x="169.0" y="500.0" type="line"/>
      <point x="169.0" y="557.0"/>
      <point x="206.0" y="592.0"/>
      <point x="264.0" y="592.0" type="curve" smooth="yes"/>
      <point x="320.0" y="592.0"/>
      <point x="355.0" y="557.0"/>
      <point x="355.0" y="500.0" type="curve" smooth="yes"/>
      <point x="355.0" y="435.0"/>
      <point x="310.0" y="394.0"/>
      <point x="239.0" y="394.0" type="curve" smooth="yes"/>
      <point x="219.0" y="394.0"/>
      <point x="201.0" y="397.0"/>
      <point x="192.0" y="402.0" type="curve"/>
    </contour>
    <component base="period" xOffset="112.0"/>
  </outline>
</glyph>
<glyph name="C" format="2">
  <advance width="689.0"/>
  <unicode hex="0043"/>
  <anchor x="407.0" y="0.0" name="bottom"/>
  <anchor x="510.0" y="0.0" name="ogonek"/>
  <anchor x="407.0" y="700.0" name="top"/>
  <outline>
    <contour>
      <point x="407.0" y="-13.0" type="curve" smooth="yes"/>
      <point x="529.0" y="-13.0"/>
      <point x="614.0" y="36.0"/>
      <point x="667.0" y="100.0" type="curve"/>
      <point x="564.0" y="190.0" type="line"/>
      <point x="525.0" y="147.0"/>
      <point x="469.0" y="125.0"/>
      <point x="410.0" y="125.0" type="curve" smooth="yes"/>
      <point x="270.0" y="125.0"/>
      <point x="185.0" y="221.0"/>
      <point x="185.0" y="349.0" type="curve" smooth="yes"/>
      <point x="185.0" y="477.0"/>
      <point x="270.0" y="575.0"/>
      <point x="407.0" y="575.0" type="curve" smooth="yes"/>
      <point x="479.0" y="575.0"/>
      <point x="524.0" y="550.0"/>
      <point x="566.0" y="506.0" type="curve"/>
      <point x="666.0" y="601.0" type="line"/>
      <point x="600.0" y="679.0"/>
      <point x="508.0" y="713.0"/>
      <point x="407.0" y="713.0" type="curve" smooth="yes"/>
      <point x="191.0" y="713.0"/>
      <point x="42.0" y="550.0"/>
      <point x="42.0" y="349.0" type="curve" smooth="yes"/>
      <point x="42.0" y="149.0"/>
      <point x="199.0" y="-13.0"/>
    </contour>
  </outline>
</glyph>
<glyph name="Z" format="2">
  <advance width="648.0"/>
  <unicode hex="005A"/>
  <anchor x="324.0" y="0.0" name="bottom"/>
  <anchor x="324.0" y="350.0" name="center"/>
  <anchor x="324.0" y="700.0" name="top"/>
  <outline>
    <contour>
      <point x="40.0" y="0.0" type="line"/>
      <point x="604.0" y="0.0" type="line"/>
      <point x="604.0" y="133.0" type="line"/>
      <point x="268.0" y="133.0" type="line"/>
      <point x="268.0" y="135.0" type="line"/>
      <point x="282.0" y="149.0"/>
      <point x="293.0" y="164.0"/>
      <point x="303.0" y="181.0" type="curve" smooth="yes"/>
      <point x="604.0" y="685.0" type="line"/>
      <point x="604.0" y="700.0" type="line"/>
      <point x="59.0" y="700.0" type="line"/>
      <point x="59.0" y="565.0" type="line"/>
      <point x="375.0" y="565.0" type="line"/>
      <point x="375.0" y="563.0" type="line"/>
      <point x="363.0" y="552.0"/>
      <point x="354.0" y="539.0"/>
      <point x="344.0" y="523.0" type="curve" smooth="yes"/>
      <point x="40.0" y="15.0" type="line"/>
    </contour>
  </outline>
</glyph>
<glyph name="c" format="2">
  <advance width="560.0"/>
  <unicode hex="0063"/>
  <anchor x="305.0" y="0.0" name="bottom"/>
  <anchor x="400.0" y="0.0" name="ogonek"/>
  <anchor x="308.0" y="505.0" name="top"/>
  <outline>
    <contour>
      <point x="304.0" y="-13.0" type="curve" smooth="yes"/>
      <point x="411.0" y="-13.0"/>
      <point x="478.0" y="25.0"/>
      <point x="527.0" y="88.0" type="curve"/>
      <point x="425.0" y="168.0" type="line"/>
      <point x="402.0" y="137.0"/>
      <point x="365.0" y="110.0"/>
      <point x="316.0" y="110.0" type="curve" smooth="yes"/>
      <point x="232.0" y="110.0"/>
      <point x="175.0" y="167.0"/>
      <point x="175.0" y="254.0" type="curve" smooth="yes"/>
      <point x="175.0" y="340.0"/>
      <point x="230.0" y="395.0"/>
      <point x="313.0" y="395.0" type="curve" smooth="yes"/>
      <point x="370.0" y="395.0"/>
      <point x="409.0" y="367.0"/>
      <point x="426.0" y="334.0" type="curve"/>
      <point x="527.0" y="414.0" type="line"/>
      <point x="479.0" y="481.0"/>
      <point x="402.0" y="519.0"/>
      <point x="301.0" y="518.0" type="curve" smooth="yes"/>
      <point x="139.0" y="516.0"/>
      <point x="40.0" y="398.0"/>
      <point x="40.0" y="254.0" type="curve" smooth="yes"/>
      <point x="40.0" y="111.0"/>
      <point x="142.0" y="-13.0"/>
    </contour>
  </outline>
</glyph>
<glyph name="f" format="2">
  <advance width="412.0"/>
  <unicode hex="0066"/>
  <anchor x="180.0" y="0.0" name="bottom"/>
  <anchor x="279.0" y="740.0" name="top"/>
  <outline>
    <contour>
      <point x="113.0" y="0.0" type="line"/>
      <point x="248.0" y="0.0" type="line"/>
      <point x="248.0" y="566.0" type="line" smooth="yes"/>
      <point x="248.0" y="617.0"/>
      <point x="286.0" y="638.0"/>
      <point x="330.0" y="638.0" type="curve" smooth="yes"/>
      <point x="354.0" y="638.0"/>
      <point x="373.0" y="636.0"/>
      <point x="392.0" y="630.0" type="curve"/>
      <point x="392.0" y="745.0" type="line"/>
      <point x="363.0" y="751.0"/>
      <point x="343.0" y="753.0"/>
      <point x="304.0" y="753.0" type="curve" smooth="yes"/>
      <point x="191.0" y="753.0"/>
      <point x="113.0" y="683.0"/>
      <point x="113.0" y="568.0" type="curve" smooth="yes"/>
    </contour>
    <contour>
      <point x="20.0" y="385.0" type="line"/>
      <point x="392.0" y="385.0" type="line"/>
      <point x="392.0" y="505.0" type="line"/>
      <point x="20.0" y="505.0" type="line"/>
    </contour>
  </outline>
</glyph>
<glyph name="o" format="2">
  <advance width="614.0"/>
  <unicode hex="006F"/>
  <anchor x="307.0" y="0.0" name="bottom"/>
  <anchor x="307.0" y="260.0" name="center"/>
  <anchor x="375.0" y="-5.0" name="ogonek"/>
  <anchor x="307.0" y="505.0" name="top"/>
  <anchor x="472.0" y="505.0" name="topright"/>
  <outline>
    <contour>
      <point x="307.0" y="-13.0" type="curve" smooth="yes"/>
      <point x="460.0" y="-13.0"/>
      <point x="574.0" y="101.0"/>
      <point x="574.0" y="252.0" type="curve" smooth="yes"/>
      <point x="574.0" y="404.0"/>
      <point x="460.0" y="518.0"/>
      <point x="307.0" y="518.0" type="curve" smooth="yes"/>
      <point x="154.0" y="518.0"/>
      <point x="40.0" y="404.0"/>
      <point x="40.0" y="252.0" type="curve" smooth="yes"/>
      <point x="40.0" y="101.0"/>
      <point x="154.0" y="-13.0"/>
    </contour>
    <contour>
      <point x="307.0" y="110.0" type="curve" smooth="yes"/>
      <point x="231.0" y="110.0"/>
      <point x="175.0" y="165.0"/>
      <point x="175.0" y="252.0" type="curve" smooth="yes"/>
      <point x="175.0" y="340.0"/>
      <point x="231.0" y="395.0"/>
      <point x="307.0" y="395.0" type="curve" smooth="yes"/>
      <point x="383.0" y="395.0"/>
      <point x="439.0" y="340.0"/>
      <point x="439.0" y="252.0" type="curve" smooth="yes"/>
      <point x="439.0" y="165.0"/>
      <point x="383.0" y="110.0"/>
    </contour>
  </outline>
</glyph>
<glyph name="cent" format="2">
  <advance width="520.0"/>
  <unicode hex="00A2"/>
  <anchor x="281.0" y="501.0" name="_TopCurrency"/>
  <outline>
    <contour>
      <point x="291.0" y="30.0" type="curve" smooth="yes"/>
      <point x="376.0" y="30.0"/>
      <point x="440.0" y="66.0"/>
      <point x="487.0" y="122.0" type="curve"/>
      <point x="399.0" y="198.0" type="line"/>
      <point x="374.0" y="167.0"/>
      <point x="340.0" y="145.0"/>
      <point x="291.0" y="145.0" type="curve" smooth="yes"/>
      <point x="210.0" y="145.0"/>
      <point x="163.0" y="202.0"/>
      <point x="163.0" y="278.0" type="curve" smooth="yes"/>
      <point x="163.0" y="354.0"/>
      <point x="210.0" y="416.0"/>
      <point x="291.0" y="416.0" type="curve" smooth="yes"/>
      <point x="336.0" y="416.0"/>
      <point x="367.0" y="396.0"/>
      <point x="391.0" y="359.0" type="curve"/>
      <point x="483.0" y="444.0" type="line"/>
      <point x="436.0" y="497.0"/>
      <point x="373.0" y="531.0"/>
      <point x="291.0" y="531.0" type="curve" smooth="yes"/>
      <point x="140.0" y="531.0"/>
      <point x="36.0" y="410.0"/>
      <point x="36.0" y="278.0" type="curve" smooth="yes"/>
      <point x="36.0" y="146.0"/>
      <point x="140.0" y="30.0"/>
    </contour>
    <component base="verticalTopCurrencycomb" xOffset="281.0" yOffset="-152.0"/>
    <component base="verticalBottomCurrencycomb" xOffset="281.0" yOffset="2.0"/>
  </outline>
</glyph>
<glyph name="copyright" format="2">
  <advance width="901.0"/>
  <unicode hex="00A9"/>
  <outline>
    <contour>
      <point x="450.0" y="-50.0" type="curve" smooth="yes"/>
      <point x="672.0" y="-50.0"/>
      <point x="856.0" y="129.0"/>
      <point x="856.0" y="352.0" type="curve" smooth="yes"/>
      <point x="856.0" y="574.0"/>
      <point x="673.0" y="753.0"/>
      <point x="450.0" y="753.0" type="curve" smooth="yes"/>
      <point x="228.0" y="753.0"/>
      <point x="45.0" y="574.0"/>
      <point x="45.0" y="352.0" type="curve" smooth="yes"/>
      <point x="45.0" y="129.0"/>
      <point x="228.0" y="-50.0"/>
    </contour>
    <contour>
      <point x="450.0" y="27.0" type="curve" smooth="yes"/>
      <point x="272.0" y="27.0"/>
      <point x="129.0" y="173.0"/>
      <point x="129.0" y="352.0" type="curve" smooth="yes"/>
      <point x="129.0" y="530.0"/>
      <point x="272.0" y="676.0"/>
      <point x="450.0" y="676.0" type="curve" smooth="yes"/>
      <point x="629.0" y="676.0"/>
      <point x="772.0" y="530.0"/>
      <point x="772.0" y="352.0" type="curve" smooth="yes"/>
      <point x="772.0" y="173.0"/>
      <point x="628.0" y="27.0"/>
    </contour>
    <contour>
      <point x="452.0" y="114.0" type="curve" smooth="yes"/>
      <point x="539.0" y="114.0"/>
      <point x="602.0" y="146.0"/>
      <point x="649.0" y="199.0" type="curve"/>
      <point x="560.0" y="266.0" type="line"/>
      <point x="536.0" y="243.0"/>
      <point x="506.0" y="222.0"/>
      <point x="460.0" y="222.0" type="curve" smooth="yes"/>
      <point x="383.0" y="222.0"/>
      <point x="332.0" y="282.0"/>
      <point x="332.0" y="354.0" type="curve" smooth="yes"/>
      <point x="332.0" y="425.0"/>
      <point x="381.0" y="485.0"/>
      <point x="457.0" y="485.0" type="curve" smooth="yes"/>
      <point x="497.0" y="485.0"/>
      <point x="529.0" y="470.0"/>
      <point x="551.0" y="447.0" type="curve"/>
      <point x="643.0" y="511.0" type="line"/>
      <point x="602.0" y="564.0"/>
      <point x="539.0" y="594.0"/>
      <point x="455.0" y="594.0" type="curve" smooth="yes"/>
      <point x="304.0" y="594.0"/>
      <point x="213.0" y="486.0"/>
      <point x="213.0" y="354.0" type="curve" smooth="yes"/>
      <point x="213.0" y="222.0"/>
      <point x="299.0" y="114.0"/>
    </contour>
  </outline>
</glyph>
<glyph name="registered" format="2">
  <advance width="595.0"/>
  <unicode hex="00AE"/>
  <outline>
    <contour>
      <point x="297.0" y="230.0" type="curve" smooth="yes"/>
      <point x="435.0" y="230.0"/>
      <point x="548.0" y="341.0"/>
      <point x="548.0" y="479.0" type="curve" smooth="yes"/>
      <point x="548.0" y="617.0"/>
      <point x="435.0" y="727.0"/>
      <point x="297.0" y="727.0" type="curve" smooth="yes"/>
      <point x="160.0" y="727.0"/>
      <point x="47.0" y="617.0"/>
      <point x="47.0" y="479.0" type="curve" smooth="yes"/>
      <point x="47.0" y="341.0"/>
      <point x="160.0" y="230.0"/>
    </contour>
    <contour>
      <point x="297.0" y="291.0" type="curve" smooth="yes"/>
      <point x="195.0" y="291.0"/>
      <point x="112.0" y="376.0"/>
      <point x="112.0" y="479.0" type="curve" smooth="yes"/>
      <point x="112.0" y="581.0"/>
      <point x="195.0" y="666.0"/>
      <point x="297.0" y="666.0" type="curve" smooth="yes"/>
      <point x="400.0" y="666.0"/>
      <point x="483.0" y="581.0"/>
      <point x="483.0" y="479.0" type="curve" smooth="yes"/>
      <point x="483.0" y="376.0"/>
      <point x="400.0" y="291.0"/>
    </contour>
    <contour>
      <point x="201.0" y="350.0" type="line"/>
      <point x="256.0" y="350.0" type="line"/>
      <point x="256.0" y="451.0" type="line"/>
      <point x="280.0" y="451.0" type="line"/>
      <point x="283.0" y="443.0"/>
      <point x="285.0" y="438.0"/>
      <point x="289.0" y="432.0" type="curve" smooth="yes"/>
      <point x="345.0" y="350.0" type="line"/>
      <point x="409.0" y="350.0" type="line"/>
      <point x="337.0" y="455.0" type="line"/>
      <point x="377.0" y="464.0"/>
      <point x="399.0" y="490.0"/>
      <point x="399.0" y="531.0" type="curve" smooth="yes"/>
      <point x="399.0" y="581.0"/>
      <point x="363.0" y="610.0"/>
      <point x="305.0" y="610.0" type="curve" smooth="yes"/>
      <point x="201.0" y="610.0" type="line"/>
    </contour>
    <contour>
      <point x="256.0" y="499.0" type="line"/>
      <point x="256.0" y="561.0" type="line"/>
      <point x="298.0" y="561.0" type="line" smooth="yes"/>
      <point x="325.0" y="561.0"/>
      <point x="341.0" y="551.0"/>
      <point x="341.0" y="530.0" type="curve" smooth="yes"/>
      <point x="341.0" y="509.0"/>
      <point x="325.0" y="499.0"/>
      <point x="298.0" y="499.0" type="curve" smooth="yes"/>
    </contour>
  </outline>
</glyph>
<glyph name="divide" format="2">
  <advance width="596.0"/>
  <unicode hex="00F7"/>
  <outline>
    <contour>
      <point x="65.0" y="261.0" type="line"/>
      <point x="517.0" y="261.0" type="line"/>
      <point x="517.0" y="371.0" type="line"/>
      <point x="65.0" y="371.0" type="line"/>
    </contour>
    <component base="tittle" xScale="0.95" yScale="0.95" xOffset="157.0" yOffset="-486.0"/>
    <component base="tittle" xScale="0.95" yScale="0.95" xOffset="159.0" yOffset="-119.0"/>
  </outline>
</glyph>
<glyph name="jdotless" format="2">
  <advance width="275.0"/>
  <unicode hex="0237"/>
  <anchor x="46.0" y="-233.0" name="bottom"/>
  <anchor x="60.0" y="-233.0" name="ogonek"/>
  <anchor x="137.0" y="505.0" name="top"/>
  <outline>
    <contour>
      <point x="46.0" y="-233.0" type="curve" smooth="yes"/>
      <point x="149.0" y="-233.0"/>
      <point x="205.0" y="-170.0"/>
      <point x="205.0" y="-67.0" type="curve" smooth="yes"/>
      <point x="205.0" y="505.0" type="line"/>
      <point x="70.0" y="505.0" type="line"/>
      <point x="70.0" y="-60.0" type="line" smooth="yes"/>
      <point x="70.0" y="-93.0"/>
      <point x="54.0" y="-110.0"/>
      <point x="24.0" y="-110.0" type="curve" smooth="yes"/>
      <point x="10.0" y="-110.0"/>
      <point x="-3.0" y="-108.0"/>
      <point x="-16.0" y="-103.0" type="curve"/>
      <point x="-35.0" y="-223.0" type="line"/>
      <point x="-10.0" y="-230.0"/>
      <point x="16.0" y="-233.0"/>
    </contour>
  </outline>
</glyph>
<glyph name="verticallinemod" format="2">
  <advance width="275.0"/>
  <unicode hex="02C8"/>
  <outline>
    <contour>
      <point x="70.0" y="420.0" type="line"/>
      <point x="205.0" y="420.0" type="line"/>
      <point x="205.0" y="740.0" type="line"/>
      <point x="70.0" y="740.0" type="line"/>
      <point x="70.0" y="469.0" type="line"/>
    </contour>
  </outline>
</glyph>
<glyph name="brevecomb" format="2">
  <unicode hex="0306"/>
  <anchor x="0.0" y="505.0" name="_top"/>
  <anchor x="0.0" y="660.0" name="top"/>
  <outline>
    <contour>
      <point x="0.0" y="553.0" type="curve" smooth="yes"/>
      <point x="99.0" y="553.0"/>
      <point x="160.0" y="608.0"/>
      <point x="160.0" y="695.0" type="curve"/>
      <point x="66.0" y="695.0" type="line"/>
      <point x="67.0" y="654.0"/>
      <point x="38.0" y="632.0"/>
      <point x="0.0" y="632.0" type="curve" smooth="yes"/>
      <point x="-38.0" y="632.0"/>
      <point x="-67.0" y="654.0"/>
      <point x="-66.0" y="695.0" type="curve"/>
      <point x="-160.0" y="695.0" type="line"/>
      <point x="-160.0" y="608.0"/>
      <point x="-98.0" y="553.0"/>
    </contour>
  </outline>
</glyph>
<glyph name="perthousand" format="2">
  <advance width="1066.0"/>
  <unicode hex="2030"/>
  <outline>
    <contour>
      <point x="67.0" y="0.0" type="line"/>
      <point x="177.0" y="0.0" type="line"/>
      <point x="674.0" y="700.0" type="line"/>
      <point x="565.0" y="700.0" type="line"/>
    </contour>
    <contour>
      <point x="540.0" y="-8.0" type="curve" smooth="yes"/>
      <point x="631.0" y="-8.0"/>
      <point x="696.0" y="60.0"/>
      <point x="696.0" y="144.0" type="curve" smooth="yes"/>
      <point x="696.0" y="229.0"/>
      <point x="631.0" y="299.0"/>
      <point x="540.0" y="299.0" type="curve" smooth="yes"/>
      <point x="449.0" y="299.0"/>
      <point x="385.0" y="229.0"/>
      <point x="385.0" y="144.0" type="curve" smooth="yes"/>
      <point x="385.0" y="60.0"/>
      <point x="449.0" y="-8.0"/>
    </contour>
    <contour>
      <point x="540.0" y="72.0" type="curve" smooth="yes"/>
      <point x="499.0" y="72.0"/>
      <point x="471.0" y="104.0"/>
      <point x="471.0" y="144.0" type="curve" smooth="yes"/>
      <point x="471.0" y="186.0"/>
      <point x="499.0" y="218.0"/>
      <point x="540.0" y="218.0" type="curve" smooth="yes"/>
      <point x="581.0" y="218.0"/>
      <point x="609.0" y="186.0"/>
      <point x="609.0" y="144.0" type="curve" smooth="yes"/>
      <point x="611.0" y="103.0"/>
      <point x="582.0" y="71.0"/>
    </contour>
    <contour>
      <point x="200.0" y="401.0" type="curve" smooth="yes"/>
      <point x="291.0" y="401.0"/>
      <point x="356.0" y="469.0"/>
      <point x="356.0" y="553.0" type="curve" smooth="yes"/>
      <point x="356.0" y="637.0"/>
      <point x="292.0" y="708.0"/>
      <point x="200.0" y="708.0" type="curve" smooth="yes"/>
      <point x="109.0" y="708.0"/>
      <point x="45.0" y="638.0"/>
      <point x="45.0" y="553.0" type="curve" smooth="yes"/>
      <point x="45.0" y="469.0"/>
      <point x="109.0" y="401.0"/>
    </contour>
    <contour>
      <point x="200.0" y="481.0" type="curve" smooth="yes"/>
      <point x="159.0" y="481.0"/>
      <point x="131.0" y="513.0"/>
      <point x="131.0" y="553.0" type="curve" smooth="yes"/>
      <point x="131.0" y="595.0"/>
      <point x="159.0" y="627.0"/>
      <point x="200.0" y="627.0" type="curve" smooth="yes"/>
      <point x="242.0" y="627.0"/>
      <point x="269.0" y="595.0"/>
      <point x="269.0" y="553.0" type="curve" smooth="yes"/>
      <point x="271.0" y="512.0"/>
      <point x="243.0" y="481.0"/>
    </contour>
    <contour>
      <point x="890.0" y="-8.0" type="curve" smooth="yes"/>
      <point x="981.0" y="-8.0"/>
      <point x="1046.0" y="60.0"/>
      <point x="1046.0" y="144.0" type="curve" smooth="yes"/>
      <point x="1046.0" y="229.0"/>
      <point x="981.0" y="299.0"/>
      <point x="890.0" y="299.0" type="curve" smooth="yes"/>
      <point x="799.0" y="299.0"/>
      <point x="735.0" y="229.0"/>
      <point x="735.0" y="144.0" type="curve" smooth="yes"/>
      <point x="735.0" y="60.0"/>
      <point x="799.0" y="-8.0"/>
    </contour>
    <contour>
      <point x="890.0" y="72.0" type="curve" smooth="yes"/>
      <point x="849.0" y="72.0"/>
      <point x="821.0" y="104.0"/>
      <point x="821.0" y="144.0" type="curve" smooth="yes"/>
      <point x="821.0" y="186.0"/>
      <point x="849.0" y="218.0"/>
      <point x="890.0" y="218.0" type="curve" smooth="yes"/>
      <point x="931.0" y="218.0"/>
      <point x="959.0" y="186.0"/>
      <point x="959.0" y="144.0" type="curve" smooth="yes"/>
      <point x="961.0" y="103.0"/>
      <point x="932.0" y="71.0"/>
    </contour>
  </outline>
</glyph>
<glyph name="fraction" format="2">
  <advance width="577.0"/>
  <unicode hex="2044"/>
  <outline>
    <contour>
      <point x="-77.0" y="0.0" type="line"/>
      <point x="38.0" y="0.0" type="line"/>
      <point x="655.0" y="700.0" type="line"/>
      <point x="540.0" y="700.0" type="line"/>
    </contour>
  </outline>
</glyph>
<glyph name="euro" format="2">
  <advance width="668.0"/>
  <unicode hex="20AC"/>
  <outline>
    <contour>
      <point x="404.0" y="27.0" type="curve" smooth="yes"/>
      <point x="513.0" y="27.0"/>
      <point x="593.0" y="64.0"/>
      <point x="646.0" y="128.0" type="curve"/>
      <point x="534.0" y="215.0" type="line"/>
      <point x="498.0" y="170.0"/>
      <point x="455.0" y="157.0"/>
      <point x="407.0" y="157.0" type="curve" smooth="yes"/>
      <point x="332.0" y="157.0"/>
      <point x="253.0" y="197.0"/>
      <point x="236.0" y="294.0" type="curve" smooth="yes"/>
      <point x="233.0" y="311.0" type="line"/>
      <point x="227.0" y="343.0"/>
      <point x="226.0" y="356.0"/>
      <point x="232.0" y="388.0" type="curve"/>
      <point x="236.0" y="406.0" type="line"/>
      <point x="260.0" y="502.0"/>
      <point x="332.0" y="543.0"/>
      <point x="404.0" y="543.0" type="curve" smooth="yes"/>
      <point x="449.0" y="543.0"/>
      <point x="506.0" y="531.0"/>
      <point x="548.0" y="487.0" type="curve"/>
      <point x="628.0" y="583.0" type="line"/>
      <point x="574.0" y="648.0"/>
      <point x="500.0" y="673.0"/>
      <point x="404.0" y="673.0" type="curve" smooth="yes"/>
      <point x="220.0" y="673.0"/>
      <point x="85.0" y="540.0"/>
      <point x="85.0" y="349.0" type="curve" smooth="yes"/>
      <point x="85.0" y="159.0"/>
      <point x="228.0" y="27.0"/>
    </contour>
    <contour>
      <point x="-12.0" y="237.0" type="line"/>
      <point x="383.0" y="237.0" type="line"/>
      <point x="440.0" y="322.0" type="line"/>
      <point x="46.0" y="322.0" type="line"/>
    </contour>
    <contour>
      <point x="-16.0" y="378.0" type="line"/>
      <point x="475.0" y="378.0" type="line"/>
      <point x="533.0" y="463.0" type="line"/>
      <point x="43.0" y="463.0" type="line"/>
    </contour>
  </outline>
</glyph>
<glyph name="peso" format="2">
  <advance width="619.0"/>
  <unicode hex="20B1"/>
  <outline>
    <contour>
      <point x="80.0" y="30.0" type="line"/>
      <point x="220.0" y="30.0" type="line"/>
      <point x="220.0" y="174.0" type="line"/>
      <point x="286.0" y="174.0" type="line" smooth="yes"/>
      <point x="442.0" y="174.0"/>
      <point x="559.0" y="253.0"/>
      <point x="559.0" y="421.0" type="curve" smooth="yes"/>
      <point x="559.0" y="588.0"/>
      <point x="442.0" y="670.0"/>
      <point x="286.0" y="670.0" type="curve" smooth="yes"/>
      <point x="80.0" y="670.0" type="line"/>
    </contour>
    <contour>
      <point x="220.0" y="309.0" type="line"/>
      <point x="220.0" y="535.0" type="line"/>
      <point x="298.0" y="535.0" type="line" smooth="yes"/>
      <point x="374.0" y="535.0"/>
      <point x="417.0" y="506.0"/>
      <point x="417.0" y="420.0" type="curve" smooth="yes"/>
      <point x="417.0" y="333.0"/>
      <point x="374.0" y="309.0"/>
      <point x="298.0" y="309.0" type="curve" smooth="yes"/>
    </contour>
    <contour>
      <point x="20.0" y="343.0" type="line"/>
      <point x="619.0" y="343.0" type="line"/>
      <point x="619.0" y="405.0" type="line"/>
      <point x="20.0" y="405.0" type="line"/>
    </contour>
    <contour>
      <point x="20.0" y="439.0" type="line"/>
      <point x="619.0" y="439.0" type="line"/>
      <point x="619.0" y="501.0" type="line"/>
      <point x="20.0" y="501.0" type="line"/>
    </contour>
  </outline>
</glyph>
<glyph name="liraTurkish" format="2">
  <advance width="558.0"/>
  <unicode hex="20BA"/>
  <outline>
    <contour>
      <point x="20.0" y="297.0" type="line"/>
      <point x="487.0" y="397.0" type="line"/>
      <point x="487.0" y="487.0" type="line"/>
      <point x="20.0" y="387.0" type="line"/>
    </contour>
    <contour>
      <point x="20.0" y="443.0" type="line"/>
      <point x="487.0" y="543.0" type="line"/>
      <point x="487.0" y="627.0" type="line"/>
      <point x="20.0" y="532.0" type="line"/>
    </contour>
    <contour>
      <point x="85.0" y="30.0" type="line"/>
      <point x="222.0" y="30.0" type="line" smooth="yes"/>
      <point x="403.0" y="30.0"/>
      <point x="502.0" y="112.0"/>
      <point x="520.0" y="278.0" type="curve" smooth="yes"/>
      <point x="524.0" y="312.0" type="line"/>
      <point x="399.0" y="325.0" type="line"/>
      <point x="396.0" y="294.0" type="line" smooth="yes"/>
      <point x="386.0" y="210.0"/>
      <point x="341.0" y="165.0"/>
      <point x="262.0" y="165.0" type="curve" smooth="yes"/>
      <point x="225.0" y="165.0" type="line"/>
      <point x="225.0" y="670.0" type="line"/>
      <point x="85.0" y="670.0" type="line"/>
    </contour>
  </outline>
</glyph>
<glyph name="partialdiff" format="2">
  <advance width="620.0"/>
  <unicode hex="2202"/>
  <outline>
    <contour>
      <point x="303.0" y="-13.0" type="curve" smooth="yes"/>
      <point x="457.0" y="-13.0"/>
      <point x="573.0" y="89.0"/>
      <point x="573.0" y="283.0" type="curve" smooth="yes"/>
      <point x="573.0" y="346.0"/>
      <point x="557.0" y="398.0"/>
      <point x="533.0" y="450.0" type="curve" smooth="yes"/>
      <point x="476.0" y="564.0"/>
      <point x="369.0" y="667.0"/>
      <point x="244.0" y="756.0" type="curve"/>
      <point x="153.0" y="657.0" type="line"/>
      <point x="270.0" y="573.0"/>
      <point x="365.0" y="480.0"/>
      <point x="404.0" y="395.0" type="curve"/>
      <point x="404.0" y="377.0" type="line"/>
      <point x="419.0" y="341.0"/>
      <point x="429.0" y="301.0"/>
      <point x="429.0" y="261.0" type="curve" smooth="yes"/>
      <point x="429.0" y="167.0"/>
      <point x="381.0" y="114.0"/>
      <point x="303.0" y="114.0" type="curve" smooth="yes"/>
      <point x="226.0" y="114.0"/>
      <point x="177.0" y="173.0"/>
      <point x="177.0" y="241.0" type="curve" smooth="yes"/>
      <point x="177.0" y="311.0"/>
      <point x="226.0" y="365.0"/>
      <point x="303.0" y="365.0" type="curve" smooth="yes"/>
      <point x="362.0" y="365.0"/>
      <point x="413.0" y="346.0"/>
      <point x="434.0" y="312.0" type="curve"/>
      <point x="414.0" y="418.0" type="line"/>
      <point x="364.0" y="464.0"/>
      <point x="324.0" y="484.0"/>
      <point x="267.0" y="484.0" type="curve" smooth="yes"/>
      <point x="156.0" y="484.0"/>
      <point x="40.0" y="393.0"/>
      <point x="40.0" y="241.0" type="curve" smooth="yes"/>
      <point x="40.0" y="101.0"/>
      <point x="148.0" y="-13.0"/>
    </contour>
  </outline>
</glyph>
<glyph name="D.circled" format="2">
  <advance width="901.0"/>
  <unicode hex="24B9"/>
  <anchor x="454.508" y="120.0" name="bottom"/>
  <anchor x="316.8" y="354.0743" name="center"/>
  <anchor x="466.964" y="589.49" name="top"/>
  <outline>
    <contour>
      <point x="450.0" y="-50.0" type="curve" smooth="yes"/>
      <point x="672.0" y="-50.0"/>
      <point x="856.0" y="129.0"/>
      <point x="856.0" y="352.0" type="curve" smooth="yes"/>
      <point x="856.0" y="574.0"/>
      <point x="673.0" y="753.0"/>
      <point x="450.0" y="753.0" type="curve" smooth="yes"/>
      <point x="228.0" y="753.0"/>
      <point x="45.0" y="574.0"/>
      <point x="45.0" y="352.0" type="curve" smooth="yes"/>
      <point x="45.0" y="129.0"/>
      <point x="228.0" y="-50.0"/>
    </contour>
    <contour>
      <point x="450.0" y="27.0" type="curve" smooth="yes"/>
      <point x="272.0" y="27.0"/>
      <point x="129.0" y="173.0"/>
      <point x="129.0" y="352.0" type="curve" smooth="yes"/>
      <point x="129.0" y="530.0"/>
      <point x="272.0" y="676.0"/>
      <point x="450.0" y="676.0" type="curve" smooth="yes"/>
      <point x="629.0" y="676.0"/>
      <point x="772.0" y="530.0"/>
      <point x="772.0" y="352.0" type="curve" smooth="yes"/>
      <point x="772.0" y="173.0"/>
      <point x="628.0" y="27.0"/>
    </contour>
    <component base="D" xScale="0.692" yScale="0.6707" xOffset="213.0" yOffset="120.0"/>
  </outline>
</glyph>
<glyph name="lozenge" format="2">
  <advance width="568.0"/>
  <unicode hex="25CA"/>
  <outline>
    <contour>
      <point x="229.0" y="0.0" type="line"/>
      <point x="339.0" y="0.0" type="line"/>
      <point x="528.0" y="352.0" type="line"/>
      <point x="339.0" y="700.0" type="line"/>
      <point x="229.0" y="700.0" type="line"/>
      <point x="40.0" y="348.0" type="line"/>
    </contour>
    <contour>
      <point x="284.0" y="133.0" type="line"/>
      <point x="283.0" y="138.0"/>
      <point x="280.0" y="143.0"/>
      <point x="278.0" y="147.0" type="curve" smooth="yes"/>
      <point x="178.0" y="353.0" type="line"/>
      <point x="275.0" y="554.0" type="line" smooth="yes"/>
      <point x="277.0" y="558.0"/>
      <point x="279.0" y="563.0"/>
      <point x="280.0" y="568.0" type="curve"/>
      <point x="283.0" y="568.0" type="line"/>
      <point x="284.0" y="563.0"/>
      <point x="286.0" y="558.0"/>
      <point x="288.0" y="554.0" type="curve" smooth="yes"/>
      <point x="389.0" y="347.0" type="line"/>
      <point x="291.0" y="147.0" type="line" smooth="yes"/>
      <point x="289.0" y="143.0"/>
      <point x="287.0" y="138.0"/>
      <point x="286.0" y="133.0" type="curve"/>
    </contour>
  </outline>
</glyph>
<glyph name="heavyBallotX" format="2">
  <advance width="600.0"/>
  <unicode hex="2718"/>
  <outline>
    <contour>
      <point x="177.0" y="161.0" type="curve" smooth="yes"/>
      <point x="261.0" y="238.0"/>
      <point x="430.0" y="453.0"/>
      <point x="465.0" y="558.0" type="curve" smooth="yes"/>
      <point x="478.0" y="595.0"/>
      <point x="441.0" y="617.0"/>
      <point x="420.0" y="586.0" type="curve" smooth="yes"/>
      <point x="326.0" y="441.0"/>
      <point x="177.0" y="265.0"/>
      <point x="127.0" y="189.0" type="curve" smooth="yes"/>
      <point x="101.0" y="150.0"/>
      <point x="143.0" y="131.0"/>
    </contour>
    <contour>
      <point x="393.0" y="171.0" type="curve" smooth="yes"/>
      <point x="411.0" y="142.0"/>
      <point x="444.0" y="149.0"/>
      <point x="466.0" y="188.0" type="curve" smooth="yes"/>
      <point x="483.0" y="214.0"/>
      <point x="486.0" y="250.0"/>
      <point x="474.0" y="268.0" type="curve" smooth="yes"/>
      <point x="408.0" y="366.0"/>
      <point x="297.0" y="458.0"/>
      <point x="224.0" y="581.0" type="curve" smooth="yes"/>
      <point x="207.0" y="610.0"/>
      <point x="174.0" y="602.0"/>
      <point x="151.0" y="564.0" type="curve" smooth="yes"/>
      <point x="135.0" y="538.0"/>
      <point x="132.0" y="501.0"/>
      <point x="144.0" y="484.0" type="curve" smooth="yes"/>
      <point x="210.0" y="385.0"/>
      <point x="321.0" y="294.0"/>
    </contour>
  </outline>
</glyph>
<glyph name="sparkles" format="2">
  <advance width="724.0"/>
  <unicode hex="2728"/>
  <outline>
    <contour>
      <point x="139.0" y="275.0" type="curve"/>
      <point x="156.0" y="438.0"/>
      <point x="177.0" y="456.0"/>
      <point x="272.0" y="463.0" type="curve"/>
      <point x="177.0" y="474.0"/>
      <point x="156.0" y="490.0"/>
      <point x="139.0" y="651.0" type="curve"/>
      <point x="122.0" y="490.0"/>
      <point x="101.0" y="474.0"/>
      <point x="6.0" y="463.0" type="curve"/>
      <point x="101.0" y="456.0"/>
      <point x="122.0" y="438.0"/>
    </contour>
    <contour>
      <point x="272.0" y="-33.0" type="curve"/>
      <point x="289.0" y="130.0"/>
      <point x="310.0" y="147.0"/>
      <point x="405.0" y="155.0" type="curve"/>
      <point x="310.0" y="166.0"/>
      <point x="289.0" y="182.0"/>
      <point x="272.0" y="343.0" type="curve"/>
      <point x="255.0" y="182.0"/>
      <point x="234.0" y="166.0"/>
      <point x="139.0" y="155.0" type="curve"/>
      <point x="234.0" y="147.0"/>
      <point x="255.0" y="130.0"/>
    </contour>
    <contour>
      <point x="473.0" y="39.0" type="curve"/>
      <point x="504.0" y="337.0"/>
      <point x="543.0" y="369.0"/>
      <point x="718.0" y="384.0" type="curve"/>
      <point x="543.0" y="404.0"/>
      <point x="504.0" y="434.0"/>
      <point x="473.0" y="729.0" type="curve"/>
      <point x="442.0" y="434.0"/>
      <point x="403.0" y="404.0"/>
      <point x="228.0" y="384.0" type="curve"/>
      <point x="403.0" y="369.0"/>
      <point x="442.0" y="337.0"/>
    </contour>
  </outline>
</glyph>
<glyph name="whiteSmallStar" format="2">
  <advance width="480.0"/>
  <unicode hex="2B52"/>
  <outline>
    <contour>
      <point x="116.0" y="199.0" type="line"/>
      <point x="239.0" y="289.0" type="line"/>
      <point x="363.0" y="199.0" type="line"/>
      <point x="316.0" y="344.0" type="line"/>
      <point x="440.0" y="434.0" type="line"/>
      <point x="287.0" y="434.0" type="line"/>
      <point x="239.0" y="579.0" type="line"/>
      <point x="192.0" y="434.0" type="line"/>
      <point x="40.0" y="434.0" type="line"/>
      <point x="163.0" y="344.0" type="line"/>
    </contour>
    <contour>
      <point x="184.0" y="291.0" type="line"/>
      <point x="211.0" y="359.0" type="line"/>
      <point x="149.0" y="396.0" type="line"/>
      <point x="222.0" y="392.0" type="line"/>
      <point x="239.0" y="463.0" type="line"/>
      <point x="258.0" y="392.0" type="line"/>
      <point x="330.0" y="396.0" type="line"/>
      <point x="268.0" y="359.0" type="line"/>
      <point x="297.0" y="291.0" type="line"/>
      <point x="239.0" y="339.0" type="line"/>
    </contour>
  </outline>
</glyph>
<glyph name="Saltillo" format="2">
  <advance width="288.0"/>
  <unicode hex="A78B"/>
  <outline>
    <contour>
      <point x="97.0" y="193.0" type="line"/>
      <point x="191.0" y="193.0" type="line"/>
      <point x="214.0" y="577.0" type="line"/>
      <point x="214.0" y="700.0" type="line"/>
      <point x="74.0" y="700.0" type="line"/>
      <point x="74.0" y="577.0" type="line"/>
    </contour>
  </outline>
</glyph>
<glyph name="saltillo" format="2">
  <advance width="288.0"/>
  <unicode hex="A78C"/>
  <outline>
    <contour>
      <point x="97.0" y="263.0" type="line"/>
      <point x="191.0" y="263.0" type="line"/>
      <point x="214.0" y="577.0" type="line"/>
      <point x="214.0" y="700.0" type="line"/>
      <point x="74.0" y="700.0" type="line"/>
      <point x="74.0" y="577.0" type="line"/>
    </contour>
  </outline>
</glyph>
<glyph name="C.ss10" format="2">
  <advance width="587.0"/>
  <anchor x="409.0" y="0.0" name="bottom"/>
  <anchor x="512.0" y="0.0" name="ogonek"/>
  <anchor x="409.0" y="700.0" name="top"/>
  <outline>
    <contour>
      <point x="405.0" y="-13.0" type="curve" smooth="yes"/>
      <point x="460.0" y="-13.0"/>
      <point x="508.0" y="-5.0"/>
      <point x="554.0" y="19.0" type="curve"/>
      <point x="565.0" y="181.0" type="line"/>
      <point x="521.0" y="145.0"/>
      <point x="469.0" y="129.0"/>
      <point x="407.0" y="129.0" type="curve" smooth="yes"/>
      <point x="272.0" y="129.0"/>
      <point x="187.0" y="221.0"/>
      <point x="187.0" y="349.0" type="curve" smooth="yes"/>
      <point x="187.0" y="475.0"/>
      <point x="266.0" y="571.0"/>
      <point x="405.0" y="571.0" type="curve" smooth="yes"/>
      <point x="467.0" y="571.0"/>
      <point x="521.0" y="552.0"/>
      <point x="564.0" y="508.0" type="curve"/>
      <point x="564.0" y="673.0" type="line"/>
      <point x="524.0" y="699.0"/>
      <point x="466.0" y="713.0"/>
      <point x="405.0" y="713.0" type="curve" smooth="yes"/>
      <point x="189.0" y="713.0"/>
      <point x="42.0" y="550.0"/>
      <point x="42.0" y="349.0" type="curve" smooth="yes"/>
      <point x="42.0" y="149.0"/>
      <point x="197.0" y="-13.0"/>
    </contour>
  </outline>
</glyph>
<glyph name="f_l.ss11" format="2">
  <advance width="660.0"/>
  <anchor x="392.0" y="0.0" name="caret_1"/>
  <outline>
    <contour>
      <point x="113.0" y="0.0" type="line"/>
      <point x="248.0" y="0.0" type="line"/>
      <point x="248.0" y="527.0" type="line" smooth="yes"/>
      <point x="248.0" y="590.0"/>
      <point x="288.0" y="629.0"/>
      <point x="352.0" y="629.0" type="curve" smooth="yes"/>
      <point x="415.0" y="629.0"/>
      <point x="455.0" y="592.0"/>
      <point x="455.0" y="534.0" type="curve" smooth="yes"/>
      <point x="455.0" y="0.0" type="line"/>
      <point x="590.0" y="0.0" type="line"/>
      <point x="590.0" y="544.0" type="line" smooth="yes"/>
      <point x="590.0" y="672.0"/>
      <point x="498.0" y="753.0"/>
      <point x="352.0" y="753.0" type="curve" smooth="yes"/>
      <point x="205.0" y="753.0"/>
      <point x="113.0" y="672.0"/>
      <point x="113.0" y="544.0" type="curve" smooth="yes"/>
    </contour>
    <contour>
      <point x="20.0" y="385.0" type="line"/>
      <point x="392.0" y="385.0" type="line"/>
      <point x="392.0" y="505.0" type="line"/>
      <point x="20.0" y="505.0" type="line"/>
    </contour>
  </outline>
</glyph>
<glyph name="four.numr" format="2">
  <advance width="348.0"/>
  <outline>
    <contour>
      <point x="184.0" y="315.0" type="line"/>
      <point x="266.0" y="315.0" type="line"/>
      <point x="266.0" y="421.0" type="line"/>
      <point x="309.0" y="421.0" type="line"/>
      <point x="309.0" y="492.0" type="line"/>
      <point x="266.0" y="492.0" type="line"/>
      <point x="266.0" y="708.0" type="line"/>
      <point x="194.0" y="708.0" type="line"/>
      <point x="6.0" y="452.0" type="line"/>
      <point x="6.0" y="421.0" type="line"/>
      <point x="184.0" y="421.0" type="line"/>
    </contour>
    <contour>
      <point x="121.0" y="492.0" type="line"/>
      <point x="121.0" y="493.0" type="line"/>
      <point x="121.0" y="493.0"/>
      <point x="123.0" y="493.0"/>
      <point x="124.0" y="495.0" type="curve" smooth="yes"/>
      <point x="172.0" y="559.0" type="line" smooth="yes"/>
      <point x="175.0" y="562.0"/>
      <point x="180.0" y="572.0"/>
      <point x="183.0" y="577.0" type="curve"/>
      <point x="186.0" y="577.0" type="line"/>
      <point x="185.0" y="573.0"/>
      <point x="184.0" y="563.0"/>
      <point x="184.0" y="558.0" type="curve" smooth="yes"/>
      <point x="184.0" y="492.0" type="line"/>
    </contour>
  </outline>
</glyph>
<glyph name="horn.alt" format="2">
  <advance width="300.0"/>
  <anchor x="96.0" y="505.0" name="_topright"/>
  <outline>
    <contour>
      <point x="99.0" y="423.0" type="line"/>
      <point x="155.0" y="423.0"/>
      <point x="229.0" y="470.0"/>
      <point x="229.0" y="561.0" type="curve" smooth="yes"/>
      <point x="229.0" y="582.0"/>
      <point x="224.0" y="611.0"/>
      <point x="219.0" y="626.0" type="curve"/>
      <point x="105.0" y="626.0" type="line"/>
      <point x="111.0" y="609.0"/>
      <point x="114.0" y="591.0"/>
      <point x="114.0" y="576.0" type="curve" smooth="yes"/>
      <point x="115.0" y="534.0"/>
      <point x="100.0" y="505.0"/>
      <point x="14.0" y="505.0" type="curve"/>
    </contour>
  </outline>
</glyph>
<glyph name="seven.numr" format="2">
  <advance width="301.0"/>
  <outline>
    <contour>
      <point x="48.0" y="315.0" type="line"/>
      <point x="137.0" y="315.0" type="line"/>
      <point x="291.0" y="687.0" type="line"/>
      <point x="291.0" y="700.0" type="line"/>
      <point x="12.0" y="700.0" type="line"/>
      <point x="12.0" y="626.0" type="line"/>
      <point x="176.0" y="626.0" type="line"/>
      <point x="176.0" y="625.0" type="line"/>
      <point x="174.0" y="622.0"/>
      <point x="171.0" y="618.0"/>
      <point x="169.0" y="613.0" type="curve" smooth="yes"/>
    </contour>
  </outline>
</glyph>
<glyph name="six.numr" format="2">
  <advance width="343.0"/>
  <outline>
    <contour>
      <point x="178.0" y="385.0" type="curve" smooth="yes"/>
      <point x="146.0" y="385.0"/>
      <point x="123.0" y="410.0"/>
      <point x="123.0" y="441.0" type="curve" smooth="yes"/>
      <point x="123.0" y="474.0"/>
      <point x="146.0" y="500.0"/>
      <point x="179.0" y="500.0" type="curve" smooth="yes"/>
      <point x="210.0" y="500.0"/>
      <point x="234.0" y="474.0"/>
      <point x="234.0" y="441.0" type="curve" smooth="yes"/>
      <point x="234.0" y="410.0"/>
      <point x="210.0" y="385.0"/>
    </contour>
    <contour>
      <point x="178.0" y="307.0" type="curve" smooth="yes"/>
      <point x="263.0" y="307.0"/>
      <point x="321.0" y="363.0"/>
      <point x="321.0" y="440.0" type="curve" smooth="yes"/>
      <point x="321.0" y="530.0"/>
      <point x="257.0" y="579.0"/>
      <point x="184.0" y="567.0" type="curve"/>
      <point x="273.0" y="700.0" type="line"/>
      <point x="177.0" y="700.0" type="line"/>
      <point x="68.0" y="535.0" type="line" smooth="yes"/>
      <point x="48.0" y="505.0"/>
      <point x="37.0" y="476.0"/>
      <point x="37.0" y="440.0" type="curve" smooth="yes"/>
      <point x="37.0" y="361.0"/>
      <point x="97.0" y="307.0"/>
    </contour>
  </outline>
</glyph>
<glyph name="three.numr" format="2">
  <advance width="336.0"/>
  <outline>
    <contour>
      <point x="160.0" y="308.0" type="curve" smooth="yes"/>
      <point x="240.0" y="308.0"/>
      <point x="295.0" y="355.0"/>
      <point x="295.0" y="430.0" type="curve" smooth="yes"/>
      <point x="295.0" y="474.0"/>
      <point x="275.0" y="510.0"/>
      <point x="232.0" y="528.0" type="curve"/>
      <point x="232.0" y="529.0" type="line"/>
      <point x="276.0" y="546.0"/>
      <point x="286.0" y="580.0"/>
      <point x="286.0" y="601.0" type="curve" smooth="yes"/>
      <point x="286.0" y="665.0"/>
      <point x="237.0" y="707.0"/>
      <point x="160.0" y="707.0" type="curve" smooth="yes"/>
      <point x="95.0" y="707.0"/>
      <point x="23.0" y="674.0"/>
      <point x="28.0" y="584.0" type="curve"/>
      <point x="108.0" y="584.0" type="line"/>
      <point x="106.0" y="620.0"/>
      <point x="135.0" y="634.0"/>
      <point x="158.0" y="634.0" type="curve" smooth="yes"/>
      <point x="196.0" y="634.0"/>
      <point x="206.0" y="610.0"/>
      <point x="206.0" y="591.0" type="curve" smooth="yes"/>
      <point x="206.0" y="560.0"/>
      <point x="177.0" y="549.0"/>
      <point x="146.0" y="549.0" type="curve" smooth="yes"/>
      <point x="107.0" y="549.0" type="line"/>
      <point x="107.0" y="477.0" type="line"/>
      <point x="146.0" y="477.0" type="line" smooth="yes"/>
      <point x="180.0" y="477.0"/>
      <point x="212.0" y="464.0"/>
      <point x="212.0" y="430.0" type="curve" smooth="yes"/>
      <point x="212.0" y="399.0"/>
      <point x="191.0" y="381.0"/>
      <point x="160.0" y="381.0" type="curve" smooth="yes"/>
      <point x="131.0" y="381.0"/>
      <point x="104.0" y="399.0"/>
      <point x="106.0" y="435.0" type="curve"/>
      <point x="23.0" y="435.0" type="line"/>
      <point x="19.0" y="342.0"/>
      <point x="92.0" y="308.0"/>
    </contour>
  </outline>
</glyph>
<glyph name="u.ss10" format="2">
  <advance width="600.0"/>
  <anchor x="302.0" y="0.0" name="bottom"/>
  <anchor x="297.0" y="0.0" name="ogonek"/>
  <anchor x="304.0" y="505.0" name="top"/>
  <anchor x="532.0" y="505.0" name="topright"/>
  <outline>
    <contour>
      <point x="302.0" y="-12.0" type="curve" smooth="yes"/>
      <point x="455.0" y="-12.0"/>
      <point x="535.0" y="71.0"/>
      <point x="535.0" y="202.0" type="curve" smooth="yes"/>
      <point x="535.0" y="505.0" type="line"/>
      <point x="400.0" y="505.0" type="line"/>
      <point x="400.0" y="235.0" type="line" smooth="yes"/>
      <point x="400.0" y="145.0"/>
      <point x="373.0" y="106.0"/>
      <point x="304.0" y="106.0" type="curve" smooth="yes"/>
      <point x="238.0" y="106.0"/>
      <point x="200.0" y="145.0"/>
      <point x="200.0" y="235.0" type="curve" smooth="yes"/>
      <point x="200.0" y="505.0" type="line"/>
      <point x="65.0" y="505.0" type="line"/>
      <point x="65.0" y="202.0" type="line" smooth="yes"/>
      <point x="65.0" y="71.0"/>
      <point x="151.0" y="-12.0"/>
    </contour>
  </outline>
</glyph>
